# xmcd
#
# Track frame offsets:
#	150
#	16396
#	34593
#	53775
#	82957
#	96866
#	111226
#	136249
#	150660
#	166370
#	186176
#	206520
#
# Disc length: 2900 seconds
# Revision: 0
# Processed by: cddbd v1.5.2PL0 Copyright (c) Steve Scherf et al.
# Submitted via: dBpowerAMP V12.0
#
DISCID=940b520c
DTITLE=The Wildcat O'Halloran Band - Cougar Bait Blues
DYEAR=2012
DGENRE=Blues
TTITLE0=Too Big to Cry, so I Might as Well Laugh
TTITLE1=Bottled Bravery And Canned  Courage
TTITLE2=If You Won't do What I Want
TTITLE3=All Your Fault
TTITLE4=Xmas Divorce
TTITLE5=Cougar Bait Blues
TTITLE6=Hold On, I'm Coming
TTITLE7=Better Luck Next Time
TTITLE8=Come in my Kitchen
TTITLE9=Redneck Woman
TTITLE10=Daisy Dukes
TTITLE11=I Worship The Ground She Walks All Over me on
EXTD=
EXTT0=
EXTT1=
EXTT2=
EXTT3=
EXTT4=
EXTT5=
EXTT6=
EXTT7=
EXTT8=
EXTT9=
EXTT10=
EXTT11=
PLAYORDER=
